<svg id="visual" viewBox="0 0 900 600" width="900" height="600" xmlns="http://www.w3.org/2000/svg" xmlns:xlink="http://www.w3.org/1999/xlink" version="1.1"><rect x="0" y="0" width="900" height="600" fill="#264ECA"></rect><defs><linearGradient id="grad1_0" x1="33.3%" y1="0%" x2="100%" y2="100%"><stop offset="20%" stop-color="#264eca" stop-opacity="1"></stop><stop offset="80%" stop-color="#264eca" stop-opacity="1"></stop></linearGradient></defs><defs><linearGradient id="grad2_0" x1="0%" y1="0%" x2="66.7%" y2="100%"><stop offset="20%" stop-color="#264eca" stop-opacity="1"></stop><stop offset="80%" stop-color="#264eca" stop-opacity="1"></stop></linearGradient></defs><g transform="translate(900, 0)"><path d="M0 405.6C-40.8 346.6 -81.5 287.7 -101.8 245.8C-122.1 203.8 -121.9 179 -173.2 173.2C-224.6 167.5 -327.4 180.9 -374.7 155.2C-422.1 129.5 -413.8 64.8 -405.6 0L0 0Z" fill="#2148C0"></path></g><g transform="translate(0, 600)"><path d="M0 -405.6C61.4 -410.6 122.8 -415.6 155.2 -374.7C187.6 -333.9 191 -247.2 195.2 -195.2C199.3 -143.2 204.1 -125.9 239.3 -99.1C274.5 -72.4 340.1 -36.2 405.6 0L0 0Z" fill="#2148C0"></path></g></svg>